<?xml version="1.0" encoding="UTF-8"?>
<svg xmlns="http://www.w3.org/2000/svg" xmlns:xlink="http://www.w3.org/1999/xlink" width="841.889758" height="595.27559" viewBox="0 0 841.889758 595.27559">
<path fill-rule="nonzero" fill="rgb(84.999084%, 84.999084%, 84.999084%)" fill-opacity="1" d="M 100.222656 404.832031 L 712.507812 404.832031 L 712.507812 90.1875 L 100.222656 90.1875 Z M 100.222656 404.832031 "/>
<path fill-rule="nonzero" fill="rgb(18.03894%, 19.219971%, 57.249451%)" fill-opacity="1" d="M 108.726562 268.769531 L 406.367188 268.769531 L 406.367188 98.691406 L 108.726562 98.691406 Z M 108.726562 268.769531 "/>
<path fill-rule="nonzero" fill="rgb(93.292236%, 15.174866%, 13.412476%)" fill-opacity="1" d="M 406.367188 119.949219 L 704.003906 119.949219 L 704.003906 98.691406 L 406.367188 98.691406 Z M 406.367188 119.949219 "/>
<path fill-rule="nonzero" fill="rgb(100%, 100%, 100%)" fill-opacity="1" d="M 406.367188 141.210938 L 704.003906 141.210938 L 704.003906 119.949219 L 406.367188 119.949219 Z M 406.367188 141.210938 "/>
<path fill-rule="nonzero" fill="rgb(93.292236%, 15.174866%, 13.412476%)" fill-opacity="1" d="M 406.367188 162.46875 L 704.003906 162.46875 L 704.003906 141.210938 L 406.367188 141.210938 Z M 406.367188 162.46875 "/>
<path fill-rule="nonzero" fill="rgb(100%, 100%, 100%)" fill-opacity="1" d="M 406.367188 183.730469 L 704.003906 183.730469 L 704.003906 162.46875 L 406.367188 162.46875 Z M 406.367188 183.730469 "/>
<path fill-rule="nonzero" fill="rgb(93.292236%, 15.174866%, 13.412476%)" fill-opacity="1" d="M 406.367188 204.988281 L 704.003906 204.988281 L 704.003906 183.730469 L 406.367188 183.730469 Z M 406.367188 204.988281 "/>
<path fill-rule="nonzero" fill="rgb(100%, 100%, 100%)" fill-opacity="1" d="M 406.367188 226.25 L 704.003906 226.25 L 704.003906 204.988281 L 406.367188 204.988281 Z M 406.367188 226.25 "/>
<path fill-rule="nonzero" fill="rgb(93.292236%, 15.174866%, 13.412476%)" fill-opacity="1" d="M 406.367188 247.507812 L 704.003906 247.507812 L 704.003906 226.25 L 406.367188 226.25 Z M 406.367188 247.507812 "/>
<path fill-rule="nonzero" fill="rgb(100%, 100%, 100%)" fill-opacity="1" d="M 406.367188 268.769531 L 704.003906 268.769531 L 704.003906 247.507812 L 406.367188 247.507812 Z M 406.367188 268.769531 "/>
<path fill-rule="nonzero" fill="rgb(93.292236%, 15.174866%, 13.412476%)" fill-opacity="1" d="M 108.726562 290.027344 L 704.003906 290.027344 L 704.003906 268.769531 L 108.726562 268.769531 Z M 108.726562 290.027344 "/>
<path fill-rule="nonzero" fill="rgb(100%, 100%, 100%)" fill-opacity="1" d="M 108.726562 311.289062 L 704.003906 311.289062 L 704.003906 290.027344 L 108.726562 290.027344 Z M 108.726562 311.289062 "/>
<path fill-rule="nonzero" fill="rgb(93.292236%, 15.174866%, 13.412476%)" fill-opacity="1" d="M 108.726562 332.546875 L 704.003906 332.546875 L 704.003906 311.289062 L 108.726562 311.289062 Z M 108.726562 332.546875 "/>
<path fill-rule="nonzero" fill="rgb(100%, 100%, 100%)" fill-opacity="1" d="M 108.726562 353.808594 L 704.003906 353.808594 L 704.003906 332.546875 L 108.726562 332.546875 Z M 108.726562 353.808594 "/>
<path fill-rule="nonzero" fill="rgb(93.292236%, 15.174866%, 13.412476%)" fill-opacity="1" d="M 108.726562 375.066406 L 704.003906 375.066406 L 704.003906 353.808594 L 108.726562 353.808594 Z M 108.726562 375.066406 "/>
<path fill-rule="nonzero" fill="rgb(100%, 100%, 100%)" fill-opacity="1" d="M 108.726562 396.328125 L 704.003906 396.328125 L 704.003906 375.066406 L 108.726562 375.066406 Z M 108.726562 396.328125 "/>
<path fill-rule="nonzero" fill="rgb(99.363708%, 87.347412%, 1.269531%)" fill-opacity="1" d="M 294.75 183.730469 C 294.75 166.8125 288.03125 150.589844 276.070312 138.628906 C 264.109375 126.667969 247.886719 119.949219 230.972656 119.949219 C 214.058594 119.949219 197.835938 126.667969 185.875 138.628906 C 173.914062 150.589844 167.191406 166.8125 167.191406 183.730469 C 167.191406 200.644531 173.914062 216.867188 185.875 228.828125 C 197.835938 240.789062 214.058594 247.507812 230.972656 247.507812 C 247.886719 247.507812 264.109375 240.789062 276.070312 228.828125 C 288.03125 216.867188 294.75 200.644531 294.75 183.730469 Z M 294.75 183.730469 "/>
<path fill-rule="nonzero" fill="rgb(18.03894%, 19.219971%, 57.249451%)" fill-opacity="1" d="M 305.382812 183.730469 C 305.382812 169.070312 299.222656 155.007812 288.257812 144.644531 C 277.292969 134.277344 262.421875 128.453125 246.917969 128.453125 C 231.410156 128.453125 216.539062 134.277344 205.578125 144.644531 C 194.613281 155.007812 188.453125 169.070312 188.453125 183.730469 C 188.453125 198.390625 194.613281 212.449219 205.578125 222.816406 C 216.539062 233.179688 231.410156 239.003906 246.917969 239.003906 C 262.421875 239.003906 277.292969 233.179688 288.257812 222.816406 C 299.222656 212.449219 305.382812 198.390625 305.382812 183.730469 Z M 305.382812 183.730469 "/>
<path fill-rule="nonzero" fill="rgb(99.363708%, 87.347412%, 1.269531%)" fill-opacity="1" d="M 316.011719 183.730469 L 346.570312 171.902344 L 313.90625 174.503906 L 294.75 183.730469 Z M 316.011719 183.730469 "/>
<path fill-rule="nonzero" fill="rgb(99.363708%, 87.347412%, 1.269531%)" fill-opacity="1" d="M 313.90625 174.503906 L 336.304688 150.589844 L 308.007812 167.109375 L 294.75 183.730469 Z M 313.90625 174.503906 "/>
<path fill-rule="nonzero" fill="rgb(99.363708%, 87.347412%, 1.269531%)" fill-opacity="1" d="M 308.007812 167.109375 L 317.8125 135.84375 L 299.484375 163.003906 L 294.75 183.730469 Z M 308.007812 167.109375 "/>
<path fill-rule="nonzero" fill="rgb(99.363708%, 87.347412%, 1.269531%)" fill-opacity="1" d="M 299.484375 163.003906 L 294.75 130.578125 L 290.019531 163.003906 L 294.75 183.730469 Z M 299.484375 163.003906 "/>
<path fill-rule="nonzero" fill="rgb(99.363708%, 87.347412%, 1.269531%)" fill-opacity="1" d="M 290.019531 163.003906 L 271.691406 135.84375 L 281.496094 167.109375 L 294.75 183.730469 Z M 290.019531 163.003906 "/>
<path fill-rule="nonzero" fill="rgb(99.363708%, 87.347412%, 1.269531%)" fill-opacity="1" d="M 281.496094 167.109375 L 253.199219 150.589844 L 275.597656 174.503906 L 294.75 183.730469 Z M 281.496094 167.109375 "/>
<path fill-rule="nonzero" fill="rgb(99.363708%, 87.347412%, 1.269531%)" fill-opacity="1" d="M 275.597656 174.503906 L 242.933594 171.902344 L 273.492188 183.730469 L 294.75 183.730469 Z M 275.597656 174.503906 "/>
<path fill-rule="nonzero" fill="rgb(99.363708%, 87.347412%, 1.269531%)" fill-opacity="1" d="M 273.492188 183.730469 L 242.933594 195.554688 L 275.597656 192.953125 L 294.75 183.730469 Z M 273.492188 183.730469 "/>
<path fill-rule="nonzero" fill="rgb(99.363708%, 87.347412%, 1.269531%)" fill-opacity="1" d="M 275.597656 192.953125 L 253.199219 216.867188 L 281.496094 200.351562 L 294.75 183.730469 Z M 275.597656 192.953125 "/>
<path fill-rule="nonzero" fill="rgb(99.363708%, 87.347412%, 1.269531%)" fill-opacity="1" d="M 281.496094 200.351562 L 271.691406 231.617188 L 290.019531 204.457031 L 294.75 183.730469 Z M 281.496094 200.351562 "/>
<path fill-rule="nonzero" fill="rgb(99.363708%, 87.347412%, 1.269531%)" fill-opacity="1" d="M 290.019531 204.457031 L 294.75 236.878906 L 299.484375 204.457031 L 294.75 183.730469 Z M 290.019531 204.457031 "/>
<path fill-rule="nonzero" fill="rgb(99.363708%, 87.347412%, 1.269531%)" fill-opacity="1" d="M 299.484375 204.457031 L 317.8125 231.617188 L 308.007812 200.351562 L 294.75 183.730469 Z M 299.484375 204.457031 "/>
<path fill-rule="nonzero" fill="rgb(99.363708%, 87.347412%, 1.269531%)" fill-opacity="1" d="M 308.007812 200.351562 L 336.304688 216.867188 L 313.90625 192.953125 L 294.75 183.730469 Z M 308.007812 200.351562 "/>
<path fill-rule="nonzero" fill="rgb(99.363708%, 87.347412%, 1.269531%)" fill-opacity="1" d="M 313.90625 192.953125 L 346.570312 195.554688 L 316.011719 183.730469 L 294.75 183.730469 Z M 313.90625 192.953125 "/>
<path fill-rule="nonzero" fill="rgb(99.363708%, 87.347412%, 1.269531%)" fill-opacity="1" d="M 316.011719 183.730469 C 316.011719 178.089844 313.773438 172.683594 309.785156 168.695312 C 305.796875 164.710938 300.390625 162.46875 294.75 162.46875 C 289.113281 162.46875 283.707031 164.710938 279.71875 168.695312 C 275.730469 172.683594 273.492188 178.089844 273.492188 183.730469 C 273.492188 189.367188 275.730469 194.773438 279.71875 198.761719 C 283.707031 202.75 289.113281 204.988281 294.75 204.988281 C 300.390625 204.988281 305.796875 202.75 309.785156 198.761719 C 313.773438 194.773438 316.011719 189.367188 316.011719 183.730469 Z M 316.011719 183.730469 "/>
</svg>
